<?xml version="1.0" standalone="no"?>
<!DOCTYPE svg PUBLIC "-//W3C//DTD SVG 20010904//EN"
 "http://www.w3.org/TR/2001/REC-SVG-20010904/DTD/svg10.dtd">
<svg version="1.0" xmlns="http://www.w3.org/2000/svg"
 width="651.000000pt" height="641.000000pt" viewBox="0 0 651.000000 641.000000"
 preserveAspectRatio="xMidYMid meet">

<g transform="translate(0.000000,641.000000) scale(0.100000,-0.100000)"
fill="#000000" stroke="none">
<path d="M2636 5995 c-32 -7 -63 -18 -69 -24 -6 -6 -17 -11 -25 -11 -8 0 -27
-9 -43 -21 -16 -11 -34 -17 -39 -14 -6 4 -23 -7 -39 -24 -16 -17 -34 -31 -40
-31 -6 0 -11 -7 -11 -15 0 -8 -7 -15 -15 -15 -8 0 -15 -4 -15 -8 0 -5 -8 -17
-17 -28 -30 -32 -63 -100 -63 -127 0 -14 -5 -27 -10 -29 -14 -4 -24 -184 -11
-193 18 -11 13 -52 -8 -58 -15 -4 -20 -20 -28 -103 -12 -116 -5 -141 47 -166
38 -19 35 -8 55 -184 l7 -60 -40 -12 c-42 -13 -74 -51 -87 -105 -8 -30 -15
-33 -123 -42 -109 -9 -608 -138 -738 -190 -62 -25 -115 -45 -118 -45 -16 0
-67 -46 -89 -79 -31 -48 -137 -358 -137 -401 0 -9 -9 -40 -19 -70 -11 -30 -22
-82 -26 -114 -4 -33 -16 -78 -26 -100 -10 -23 -21 -66 -24 -96 -6 -49 -28
-172 -56 -300 -5 -25 -16 -70 -24 -100 -21 -72 -47 -343 -39 -397 3 -23 1 -49
-5 -60 -6 -11 -11 -13 -11 -5 0 20 -30 48 -31 30 -1 -7 -5 1 -9 17 -7 29 -8
29 -15 8 -4 -13 -11 -23 -16 -23 -5 0 -9 -11 -9 -24 0 -30 -20 -86 -30 -86
-19 0 -21 22 -4 36 12 10 15 17 8 20 -13 6 -7 44 7 44 13 0 11 13 -5 36 -11
14 -14 15 -14 4 2 -27 -14 -80 -24 -80 -6 0 -8 7 -4 15 3 8 1 15 -5 15 -6 0
-8 15 -5 38 6 35 5 36 -4 7 -6 -16 -7 -42 -4 -57 3 -15 2 -33 -3 -40 -5 -9
-10 1 -15 27 -5 28 -6 21 -3 -22 3 -38 1 -63 -5 -63 -6 0 -10 7 -10 15 0 8 -6
15 -12 15 -10 0 -9 3 1 9 7 5 10 14 7 20 -4 6 -12 9 -17 6 -5 -3 -6 1 -3 9 3
9 9 16 13 16 7 0 7 35 1 50 -1 3 -2 7 -2 10 0 6 -32 36 -35 33 -12 -11 -20 2
-16 25 3 26 3 26 -7 4 -5 -13 -7 -28 -4 -33 3 -5 -1 -12 -10 -15 -18 -7 -28
-32 -19 -47 4 -7 8 -20 8 -30 2 -27 -28 -16 -36 13 -4 16 -7 19 -8 8 -1 -10
-7 -18 -13 -18 -9 0 -8 -4 2 -10 10 -6 11 -10 3 -10 -7 0 -13 -4 -13 -10 0 -5
3 -9 8 -9 25 4 42 -3 42 -18 0 -13 -3 -14 -12 -5 -7 7 -22 12 -35 12 -17 0
-21 4 -17 18 5 14 4 15 -5 2 -12 -17 -5 -27 24 -32 23 -4 31 -48 9 -48 -10 0
-7 -7 7 -21 17 -17 19 -23 8 -30 -12 -8 -12 -11 1 -19 8 -5 12 -10 8 -10 -4 0
-3 -11 2 -25 7 -20 6 -25 -5 -25 -8 0 -15 4 -15 8 0 5 -6 17 -14 27 -13 18
-14 17 -11 -8 4 -38 -11 -34 -20 6 -6 28 -8 29 -15 12 -5 -14 -1 -29 13 -49
12 -16 22 -25 25 -18 4 14 62 -47 62 -67 0 -9 -12 1 -26 22 -14 21 -28 36 -31
33 -3 -2 11 -26 31 -52 37 -48 41 -60 28 -81 -5 -8 -12 -8 -26 2 -10 8 -15 18
-12 23 8 13 -24 21 -48 12 -15 -5 -15 -8 -4 -17 7 -6 23 -14 36 -17 22 -7 31
-26 12 -26 -5 0 -10 -5 -10 -10 0 -7 6 -7 18 -1 14 7 17 5 18 -14 2 -19 -2
-23 -20 -19 -23 4 -46 30 -46 52 0 7 -4 10 -10 7 -5 -3 -3 -19 7 -40 9 -19 15
-36 12 -39 -16 -14 -47 -13 -67 4 -20 16 -21 22 -11 41 10 19 9 25 -7 36 -10
7 -26 13 -36 13 -10 0 -18 5 -18 12 0 6 -8 4 -19 -6 -13 -12 -21 -14 -26 -6
-4 6 -16 8 -28 5 -19 -5 -20 -4 -6 7 9 7 14 19 11 26 -2 7 2 13 9 11 8 -1 19
-1 24 0 15 1 13 41 -1 41 -7 0 -15 6 -18 13 -3 6 -3 -1 0 -18 5 -27 4 -28 -9
-12 -13 16 -15 14 -25 -25 l-11 -43 -51 0 c-37 0 -49 3 -46 12 3 7 1 13 -4 13
-5 0 -10 -12 -12 -28 -2 -15 -8 -26 -15 -25 -10 2 -13 -50 -13 -237 l0 -240
143 -1 c78 -1 175 -2 214 -2 40 1 73 -3 73 -8 0 -10 92 -5 110 6 8 5 11 4 7
-2 -7 -11 41 -28 51 -18 3 3 -2 5 -11 5 -9 0 -18 3 -20 8 -4 6 44 7 129 3 21
-1 37 -436 20 -566 -3 -27 -11 -98 -17 -157 l-12 -108 -31 -1 c-30 -2 -30 -2
-3 -6 20 -3 27 -10 27 -26 0 -50 49 -97 101 -97 33 0 36 -2 31 -25 -6 -33 4
-32 22 3 44 85 307 304 334 278 3 -3 -9 -11 -26 -17 -17 -6 -31 -14 -31 -17 5
-33 -2 -42 -28 -37 -23 4 -24 4 -8 -4 31 -14 115 -2 171 25 28 13 57 24 65 24
8 0 -5 -9 -28 -20 -24 -11 -43 -26 -43 -35 0 -13 -4 -14 -20 -5 -11 6 -20 7
-20 2 0 -13 57 -35 69 -27 6 3 11 1 11 -4 0 -16 -51 -13 -84 4 -32 17 -42 14
-33 -10 4 -8 17 -15 31 -15 31 0 42 -16 16 -23 -11 -3 -23 -1 -26 5 -4 5 -19
8 -35 6 -29 -4 -41 6 -16 15 6 2 0 6 -16 9 -27 5 -27 5 -12 -18 12 -19 13 -24
2 -24 -7 0 -18 5 -25 12 -6 6 -15 9 -19 5 -11 -12 5 -20 39 -21 18 -1 34 -6
35 -11 3 -11 -43 -12 -107 -2 -31 5 -40 4 -30 -3 9 -5 10 -10 3 -10 -23 0 -43
12 -36 24 4 7 1 7 -9 -1 -8 -7 -19 -9 -23 -5 -5 4 -5 1 -1 -6 4 -7 13 -9 19
-6 7 4 8 3 4 -2 -8 -9 -12 -10 -38 -13 -6 0 -8 -8 -5 -17 3 -8 2 -13 -3 -9
-13 8 -115 -98 -104 -109 5 -5 -17 -11 -67 -19 -17 -3 -13 -5 12 -6 36 -1 37
-2 27 -25 -8 -16 -8 -43 -1 -87 6 -39 10 -51 11 -32 0 17 5 34 11 38 5 3 7 12
4 19 -3 7 2 18 10 25 8 7 12 19 9 26 -3 9 5 19 21 27 16 6 25 17 22 25 -3 7
-1 13 5 13 5 0 14 11 19 25 5 14 20 27 35 31 14 3 25 10 25 15 0 5 3 8 8 8 28
-5 62 3 56 12 -3 6 -17 9 -30 6 -13 -2 -24 0 -24 5 0 5 -6 6 -13 2 -8 -5 -7
-2 2 9 8 11 21 15 32 12 10 -4 35 -1 56 4 34 10 64 4 36 -6 -7 -3 -13 -11 -13
-19 0 -8 -4 -14 -10 -14 -5 0 -10 -6 -10 -14 0 -8 -6 -17 -12 -19 -10 -4 -9
-8 2 -16 12 -8 5 -11 -30 -12 -30 -1 -36 -3 -18 -6 16 -2 28 -9 28 -15 0 -6 7
-20 17 -30 15 -17 15 -18 0 -18 -10 0 -17 -4 -17 -10 0 -13 17 -13 25 0 3 6
25 10 48 10 l42 1 -31 13 c-18 8 -35 19 -38 25 -11 17 40 13 54 -4 18 -21 53
-19 68 5 8 13 23 20 43 20 19 0 28 4 24 11 -4 6 -13 8 -21 5 -7 -3 -28 9 -46
26 -30 28 -31 30 -8 22 14 -4 35 -8 48 -7 26 1 30 -14 4 -20 -9 -3 -3 -5 14
-6 17 0 48 -8 68 -16 32 -14 35 -17 22 -30 -8 -8 -21 -15 -29 -15 -20 0 -28
-11 -18 -24 4 -6 11 -22 14 -34 5 -21 3 -23 -16 -18 -63 18 -77 19 -71 3 3 -8
1 -18 -5 -22 -6 -3 -14 1 -17 9 -3 9 -10 14 -14 11 -5 -3 -35 1 -68 9 -33 7
-66 10 -73 5 -7 -4 -25 -5 -40 -2 -19 3 -28 0 -33 -12 -9 -26 2 -35 42 -35 46
0 65 -12 59 -36 -4 -17 -6 -17 -12 3 -10 32 -56 29 -62 -4 -3 -13 45 -23 92
-19 48 4 52 8 20 16 l-30 8 28 1 c28 1 35 19 16 38 -8 8 -8 13 0 17 17 11 30
-2 24 -24 -4 -15 2 -22 22 -30 31 -12 48 -13 42 -3 -3 5 15 6 40 4 39 -3 45
-1 40 13 -6 16 29 44 41 32 3 -3 0 -6 -7 -6 -6 0 -16 -12 -22 -26 -7 -21 -6
-31 8 -46 16 -18 18 -18 30 -2 12 16 13 16 19 -1 4 -9 21 -24 38 -32 l31 -14
-32 4 c-18 2 -33 -1 -33 -6 0 -5 -9 -7 -20 -4 -11 3 -23 1 -26 -4 -3 -6 -24
-9 -47 -9 -23 1 -61 -1 -84 -4 -25 -3 -43 -1 -43 4 0 6 5 10 11 10 5 0 7 5 3
11 -4 8 3 9 25 5 17 -3 46 -9 63 -12 29 -6 31 -5 19 10 -7 8 -11 23 -7 31 4
10 -2 19 -17 24 -26 10 -50 3 -41 -11 4 -6 9 -6 14 2 5 9 9 9 14 1 14 -22 -6
-30 -62 -25 -31 3 -61 5 -67 4 -5 0 -28 -2 -51 -4 -56 -4 -61 -8 -58 -64 2
-39 -2 -54 -19 -73 -14 -15 -17 -24 -9 -27 7 -2 12 -19 12 -37 0 -20 6 -35 15
-39 8 -3 15 -12 15 -21 0 -10 10 -15 30 -15 17 0 30 -4 30 -10 0 -5 -18 -10
-39 -10 -22 0 -43 -4 -46 -10 -7 -11 1 -13 50 -14 17 -1 30 -5 30 -11 0 -5 -7
-9 -15 -7 -8 1 -4 -4 10 -13 l25 -15 -25 4 c-14 3 -33 5 -43 5 -10 1 -15 5
-12 11 3 5 0 7 -8 4 -16 -6 -27 -35 -27 -71 0 -16 5 -20 20 -16 11 3 33 0 48
-6 19 -8 36 -9 53 -2 16 5 31 6 40 0 11 -7 11 -9 1 -9 -11 0 -11 -2 0 -13 21
-21 51 -30 45 -13 -3 8 2 16 14 19 23 6 25 30 3 52 -15 14 -17 14 -28 -1 -12
-15 -15 -15 -44 0 -18 9 -32 22 -32 28 0 9 3 9 12 0 18 -18 39 -15 36 6 -2 13
3 16 25 14 31 -3 34 5 10 25 -16 13 -13 14 25 10 45 -6 103 -49 82 -62 -6 -4
-17 -2 -24 4 -9 7 -16 7 -24 -1 -17 -17 -15 -28 3 -22 9 4 23 -2 33 -13 9 -11
31 -25 47 -31 27 -10 25 -11 -19 -5 -35 4 -47 3 -42 -6 4 -6 13 -11 21 -11 8
0 26 -5 42 -11 l28 -11 -47 -15 c-27 -9 -48 -19 -48 -24 0 -10 43 2 53 15 5 6
6 2 3 -10 -5 -16 0 -24 21 -34 21 -9 24 -14 13 -19 -8 -3 -16 -12 -17 -18 -2
-10 240 -13 1187 -13 823 0 1190 3 1190 10 0 6 9 30 20 52 11 23 20 50 20 60
0 10 4 18 9 18 13 0 1 -73 -13 -82 -8 -5 -7 -8 2 -8 19 0 14 -28 -5 -32 -15
-3 -15 -5 -3 -9 8 -3 31 -2 50 2 30 5 31 7 8 8 l-27 1 1 89 2 90 88 -1 c49 0
91 2 95 6 3 3 -33 6 -81 6 -66 0 -87 3 -83 13 4 14 58 15 157 4 50 -5 59 -5
40 4 -14 6 -60 14 -102 17 -81 7 -87 15 -33 42 54 28 59 91 8 114 -19 9 -19
11 -3 81 26 111 38 120 64 50 10 -25 19 -63 21 -86 3 -45 16 -65 38 -56 21 8
36 108 26 164 -8 42 -7 48 16 69 22 20 25 32 25 86 0 35 7 95 16 133 9 39 20
108 24 155 5 47 15 122 24 167 8 45 18 108 20 140 3 32 14 112 25 178 11 65
26 170 33 232 8 80 16 113 25 113 7 0 13 -8 13 -17 0 -15 1 -15 13 1 9 12 22
16 42 13 l30 -4 -32 -2 c-18 0 -33 -6 -33 -12 0 -6 15 -10 33 -9 17 1 37 1 42
0 42 -8 100 0 110 14 7 9 18 16 25 16 10 0 10 -3 0 -15 -11 -13 -6 -15 33 -15
25 0 49 5 53 12 5 8 0 9 -14 6 -12 -4 -22 -2 -22 4 0 5 19 6 48 2 54 -8 67
-14 31 -15 -21 0 -21 -1 -5 -8 10 -4 33 -5 50 -2 30 4 31 5 6 12 l-25 7 24 1
c14 1 33 -6 43 -16 10 -9 21 -13 25 -9 4 4 1 11 -7 16 -13 8 -12 10 2 10 9 0
18 -5 20 -11 3 -9 9 -9 25 -1 25 14 283 15 283 2 0 -4 -6 -11 -12 -13 -7 -3 2
-4 19 -4 34 2 43 11 21 20 -10 4 -10 6 0 6 7 1 15 -6 18 -14 4 -8 10 -12 15
-9 5 3 7 9 4 14 -2 4 13 7 35 6 35 -1 39 -3 34 -21 -5 -16 -4 -18 6 -8 9 8 19
9 31 3 11 -7 27 -6 44 0 28 11 49 5 40 -10 -3 -5 42 -9 100 -9 75 0 104 3 99
11 -5 8 -1 9 10 5 10 -4 80 -7 157 -8 100 0 139 -4 139 -12 0 -7 4 -6 9 2 12
18 144 17 619 -4 81 -4 122 -2 122 5 0 13 -6 13 -165 16 -71 1 -213 5 -315 8
-102 4 -248 9 -325 11 -77 3 -145 7 -152 9 -6 3 -17 -2 -23 -10 -7 -8 -18 -14
-24 -14 -7 0 -6 4 2 9 10 6 4 10 -18 15 -52 10 -108 7 -113 -6 -4 -10 -8 -10
-14 -2 -5 7 -55 13 -126 16 -68 2 -121 9 -125 15 -4 6 -22 14 -40 18 -18 4
-31 9 -29 11 2 3 24 0 48 -5 24 -5 190 -12 369 -15 367 -7 783 -16 943 -20
l107 -3 0 39 0 39 -50 -2 c-36 -2 -55 2 -70 16 -11 10 -17 21 -14 26 2 5 -13
2 -36 -6 -46 -16 -92 -9 -49 8 14 5 19 11 12 14 -7 3 -13 16 -13 30 0 18 -4
24 -15 19 -12 -4 -15 4 -15 44 0 41 -3 50 -17 49 -11 0 -13 -3 -5 -6 18 -7 14
-33 -5 -33 -15 0 -16 2 -3 10 12 8 12 10 1 10 -9 0 -12 8 -9 25 3 14 2 25 -3
25 -9 0 -17 -39 -23 -122 -4 -50 -2 -57 16 -61 34 -9 12 -22 -42 -25 -32 -1
-49 2 -45 8 3 5 -1 10 -9 10 -15 0 -19 23 -20 127 0 25 -16 20 -16 -5 -1 -14
-4 -13 -20 7 -21 24 -26 21 -11 -7 5 -9 6 -44 1 -77 l-7 -60 -3 45 -3 45 -7
-45 c-5 -35 -7 -22 -8 57 -2 101 -2 103 -27 109 -36 9 -41 1 -44 -74 -1 -13
-5 -21 -10 -17 -5 3 -12 1 -16 -5 -3 -5 1 -10 10 -10 13 0 16 -7 11 -38 -3
-20 -5 -45 -6 -54 0 -10 -5 -18 -11 -18 -23 0 -37 29 -44 89 -5 45 -12 65 -26
74 -10 6 -19 17 -19 24 0 9 -17 12 -57 11 -50 -1 -52 -2 -15 -5 l42 -4 -2 -62
c-1 -57 -2 -58 -5 -15 -3 34 -8 48 -19 48 -13 0 -16 -11 -16 -73 -1 -24 -4
-27 -35 -27 -27 0 -34 3 -29 15 3 8 1 15 -3 15 -5 0 -12 -8 -16 -17 -6 -17 -7
-17 -19 -2 -10 15 -14 15 -30 3 -20 -14 -41 -9 -30 7 3 5 9 7 14 4 5 -3 8 4 7
15 -1 11 -4 20 -8 20 -4 0 -7 21 -6 48 0 26 2 37 5 24 5 -32 26 -22 30 14 2
22 0 26 -7 14 -8 -11 -11 -11 -11 -2 0 9 -5 10 -17 4 -10 -5 -24 -7 -30 -5 -7
3 -13 -1 -13 -9 -1 -7 -2 -37 -3 -66 -2 -39 2 -56 13 -63 10 -6 7 -7 -12 -3
-22 5 -28 2 -28 -10 0 -9 -4 -16 -10 -16 -5 0 -10 14 -10 30 0 18 -6 33 -15
36 -9 4 -15 11 -14 18 5 38 -3 116 -11 116 -5 0 -7 -7 -4 -15 7 -18 -25 -33
-35 -16 -4 6 -15 9 -24 5 -13 -5 -17 0 -17 19 0 14 4 28 8 31 6 4 8 87 2 106
-5 16 -19 -42 -19 -83 -1 -29 -5 -46 -11 -42 -5 3 -10 17 -10 30 0 12 -6 25
-14 28 -11 4 -16 -7 -22 -46 -7 -54 -12 -109 -13 -164 -1 -29 -4 -33 -26 -31
-18 2 -25 8 -26 23 0 20 0 20 -10 0 -6 -15 -8 -6 -6 33 1 28 -1 52 -5 52 -5 0
-8 -8 -8 -17 0 -14 -3 -13 -16 5 -8 12 -20 22 -26 22 -6 0 -5 -7 3 -17 11 -13
11 -17 2 -20 -18 -6 -16 -43 1 -43 8 0 16 -7 20 -15 4 -12 -4 -15 -44 -15 -52
0 -69 12 -50 35 10 12 9 15 -4 15 -9 0 -16 -8 -16 -17 0 -28 -18 -1 -22 32 -2
17 -8 29 -15 28 -8 -2 -13 8 -14 25 -1 26 -1 26 -8 4 -6 -22 -8 -21 -28 20
l-23 43 0 -97 c0 -54 -4 -100 -10 -103 -6 -4 -10 18 -11 57 0 70 -11 109 -23
90 -4 -7 -12 -10 -17 -7 -5 4 -9 -20 -9 -54 0 -38 -4 -61 -11 -61 -7 0 -9 9
-6 22 4 13 0 26 -10 33 -11 8 -16 27 -16 59 1 25 -2 46 -7 46 -4 0 -8 -32 -9
-71 -1 -38 -2 -73 -2 -77 -3 -18 2 -26 9 -15 5 8 12 8 26 -3 19 -14 19 -14 -1
-14 -12 0 -32 4 -46 9 -23 9 -23 13 -21 95 2 47 -1 86 -6 86 -5 0 -11 -8 -13
-18 -4 -16 -5 -16 -6 1 0 9 -6 17 -12 17 -7 0 -10 -29 -7 -90 2 -72 0 -89 -10
-85 -8 3 -16 5 -18 5 -2 0 -4 11 -4 25 0 30 -19 34 -21 5 -3 -41 -5 -45 -23
-42 -10 2 -22 -2 -27 -9 -13 -22 -59 5 -52 31 4 16 8 18 14 8 5 -7 9 -8 9 -3
0 26 -17 37 -39 26 -21 -12 -31 2 -11 14 6 3 10 16 9 28 0 15 -2 17 -6 7 -3
-8 -15 -23 -27 -32 -23 -19 -51 -24 -41 -8 3 6 2 10 -3 10 -13 0 -24 -29 -15
-42 3 -6 1 -8 -4 -5 -6 4 -14 0 -17 -9 -3 -8 -10 -12 -16 -9 -6 4 -2 15 10 27
21 23 18 41 -5 31 -9 -3 -15 1 -15 11 0 9 -6 16 -12 16 -8 1 -6 6 5 14 9 7 17
19 17 27 0 12 -2 12 -9 0 -7 -11 -11 -9 -21 8 -6 12 -9 27 -6 34 3 9 5 9 5 0
1 -6 10 -9 20 -6 13 3 19 12 17 27 -4 34 -16 47 -37 41 -19 -6 -27 9 -10 20
12 7 10 45 -2 45 -5 0 -15 -7 -23 -15 -14 -13 -13 -15 3 -15 15 0 16 -2 3 -10
-19 -12 -32 8 -19 32 8 15 6 18 -19 18 -16 0 -35 -7 -42 -15 -6 -7 -33 -17
-58 -21 -42 -6 -44 -8 -22 -16 17 -6 26 -5 28 2 3 7 10 2 19 -9 8 -12 20 -21
26 -21 7 0 6 4 -3 11 -12 8 -12 10 4 7 11 -2 19 -6 18 -10 -1 -5 -2 -17 -2
-28 0 -13 -5 -17 -14 -14 -10 4 -13 0 -10 -13 7 -26 -13 -73 -31 -73 -18 0
-20 -16 -2 -23 6 -3 -7 -6 -31 -6 -30 -1 -44 4 -48 14 -4 10 -13 13 -26 9 -19
-6 -20 -2 -16 61 3 36 1 89 -4 117 -7 39 -6 54 5 67 8 9 12 22 9 30 -2 8 0 11
6 7 6 -3 13 -2 17 4 3 5 -3 10 -14 10 -11 0 -23 5 -26 10 -4 6 -10 8 -14 5
-10 -5 -24 135 -27 255 -1 47 -7 110 -13 140 -6 30 -15 100 -20 155 -5 55 -12
107 -15 115 -2 8 -7 55 -11 104 -3 49 -9 94 -12 99 -3 6 -7 35 -8 66 -7 190
-19 333 -31 382 -8 31 -14 79 -14 105 0 30 -7 61 -18 79 -27 43 -111 129 -155
158 -20 14 -52 37 -70 52 -17 15 -76 54 -129 88 -53 34 -141 92 -195 128 -54
36 -117 77 -139 90 -31 17 -49 38 -69 78 -27 56 -145 206 -167 213 -9 3 -7 29
9 99 28 123 59 205 75 200 81 -27 129 58 110 195 -6 42 -6 91 -1 124 5 30 9
78 8 105 -1 146 -1 150 -21 172 -13 14 -19 30 -15 43 3 11 1 23 -4 26 -5 3
-18 22 -28 42 -23 44 -98 128 -111 125 -6 -2 -10 3 -10 11 0 7 -15 21 -32 31
-68 34 -110 63 -124 84 -12 16 -19 19 -33 12 -12 -7 -30 -5 -57 4 -47 17 -119
17 -198 0z m-236 -483 c0 -26 -11 -34 -27 -21 -10 9 -10 15 -2 25 16 19 29 17
29 -4z m757 -34 c-3 -8 -6 -5 -6 6 -1 11 2 17 5 13 3 -3 4 -12 1 -19z m-1412
-1737 c0 -16 -3 -33 -7 -37 -5 -4 -8 6 -8 23 0 23 6 43 14 43 1 0 1 -13 1 -29z
m-1221 -950 c-8 -9 -22 12 -17 26 6 15 7 14 13 -3 4 -10 6 -21 4 -23z m176
-21 c0 -11 -4 -20 -10 -20 -5 0 -10 9 -10 20 0 11 5 20 10 20 6 0 10 -9 10
-20z m27 -12 c-3 -8 -6 -5 -6 6 -1 11 2 17 5 13 3 -3 4 -12 1 -19z m-117 -34
c0 -8 -5 -12 -10 -9 -6 4 -8 11 -5 16 9 14 15 11 15 -7z m2 -86 c-7 -7 -12 -8
-12 -2 0 14 12 26 19 19 2 -3 -1 -11 -7 -17z m-67 -6 c-3 -3 -11 0 -18 7 -9
10 -8 11 6 5 10 -3 15 -9 12 -12z m182 -34 c-3 -8 -6 -5 -6 6 -1 11 2 17 5 13
3 -3 4 -12 1 -19z m-260 -10 c-3 -8 -6 -5 -6 6 -1 11 2 17 5 13 3 -3 4 -12 1
-19z m37 -77 c-6 -7 -21 65 -15 79 3 8 8 -5 12 -30 4 -25 5 -47 3 -49z m136
75 c0 -3 -4 -8 -10 -11 -5 -3 -10 -1 -10 4 0 6 5 11 10 11 6 0 10 -2 10 -4z
m-170 -46 c0 -5 -2 -10 -4 -10 -3 0 -8 5 -11 10 -3 6 -1 10 4 10 6 0 11 -4 11
-10z m0 -30 c0 -5 -4 -10 -10 -10 -5 0 -10 5 -10 10 0 6 5 10 10 10 6 0 10 -4
10 -10z m0 -48 c0 -15 -2 -15 -10 -2 -13 20 -13 33 0 25 6 -3 10 -14 10 -23z
m61 -27 c5 4 10 0 10 -7 5 -50 4 -68 -6 -65 -5 2 -10 15 -10 30 0 14 -3 29 -7
33 -5 4 -7 14 -7 23 1 13 2 12 6 -2 2 -9 9 -15 14 -12z m-34 -22 c-3 -10 -5
-4 -5 12 0 17 2 24 5 18 2 -7 2 -21 0 -30z m196 -20 c-7 -3 -9 -11 -6 -19 3
-8 1 -14 -5 -14 -15 0 -20 23 -8 36 6 7 15 9 21 6 5 -3 4 -7 -2 -9z m-183 -13
c0 -5 -4 -10 -10 -10 -5 0 -10 5 -10 10 0 6 5 10 10 10 6 0 10 -4 10 -10z m67
-12 c-3 -8 -6 -5 -6 6 -1 11 2 17 5 13 3 -3 4 -12 1 -19z m63 8 c0 -3 -4 -8
-10 -11 -5 -3 -10 -1 -10 4 0 6 5 11 10 11 6 0 10 -2 10 -4z m3540 -5 c0 -6
-4 -13 -10 -16 -5 -3 -10 1 -10 9 0 9 5 16 10 16 6 0 10 -4 10 -9z m-3510 -30
c0 -4 -7 -8 -15 -8 -16 0 -20 9 -9 20 8 8 24 -1 24 -12z m-455 -21 c3 -5 1
-10 -4 -10 -6 0 -11 5 -11 10 0 6 2 10 4 10 3 0 8 -4 11 -10z m21 -26 c-3 -9
-6 -20 -6 -25 0 -6 -9 -5 -22 2 -21 11 -21 12 -3 25 25 19 39 18 31 -2z m349
-4 c3 -6 -1 -7 -9 -4 -18 7 -21 14 -7 14 6 0 13 -4 16 -10z m5 -60 c-8 -5 -18
-6 -24 -3 -5 4 -1 10 10 13 24 9 34 2 14 -10z m-145 -10 c3 -5 1 -10 -4 -10
-6 0 -11 5 -11 10 0 6 2 10 4 10 3 0 8 -4 11 -10z m3945 -25 c15 9 28 -19 19
-40 -9 -18 -9 -18 -5 3 2 12 0 22 -5 22 -5 0 -9 -8 -10 -17 0 -15 -2 -15 -9 2
-5 12 -9 14 -9 6 -1 -8 -3 -12 -6 -10 -2 3 -1 16 2 29 4 14 8 19 11 12 2 -7 7
-10 12 -7z m970 -5 c0 -5 -5 -10 -11 -10 -5 0 -7 5 -4 10 3 6 8 10 11 10 2 0
4 -4 4 -10z m-543 -82 c2 -30 1 -31 -7 -10 -6 13 -8 28 -4 33 8 14 10 11 11
-23z m623 -7 c0 -16 3 -38 6 -48 5 -16 4 -16 -10 1 -18 22 -22 76 -6 76 6 0
10 -13 10 -29z m-997 -1 c3 -11 1 -20 -4 -20 -5 0 -9 9 -9 20 0 11 2 20 4 20
2 0 6 -9 9 -20z m1023 -38 c-11 -10 -14 3 -8 33 l7 30 3 -28 c2 -16 1 -31 -2
-35z m129 48 c3 -5 1 -10 -4 -10 -6 0 -11 5 -11 10 0 6 2 10 4 10 3 0 8 -4 11
-10z m-1186 -53 c0 -9 -2 -9 -6 1 -2 6 -11 12 -19 12 -8 0 -14 5 -14 10 0 7 6
7 20 0 11 -6 20 -16 19 -23z m-166 -4 c-7 -2 -19 -2 -25 0 -7 3 -2 5 12 5 14
0 19 -2 13 -5z m57 3 c0 -3 -4 -8 -10 -11 -5 -3 -10 -1 -10 4 0 6 5 11 10 11
6 0 10 -2 10 -4z m157 -18 c-3 -8 -6 -5 -6 6 -1 11 2 17 5 13 3 -3 4 -12 1
-19z m443 2 c0 -5 -2 -10 -4 -10 -3 0 -8 5 -11 10 -3 6 -1 10 4 10 6 0 11 -4
11 -10z m60 0 c0 -5 -4 -10 -10 -10 -5 0 -10 5 -10 10 0 6 5 10 10 10 6 0 10
-4 10 -10z m526 -10 c11 0 14 -8 12 -27 -2 -20 -8 -27 -20 -25 -10 2 -18 -2
-18 -8 0 -23 -19 -8 -25 21 -5 23 -3 34 12 44 10 7 20 9 21 4 2 -5 10 -9 18
-9z m101 -12 c-3 -7 -5 -2 -5 12 0 14 2 19 5 13 2 -7 2 -19 0 -25z m-1220 0
c-3 -8 -6 -5 -6 6 -1 11 2 17 5 13 3 -3 4 -12 1 -19z m1038 -8 c3 -5 1 -10 -4
-10 -6 0 -11 5 -11 10 0 6 2 10 4 10 3 0 8 -4 11 -10z m415 -50 c0 -5 -4 -10
-10 -10 -5 0 -10 5 -10 10 0 6 5 10 10 10 6 0 10 -4 10 -10z m-5177 -7 c-7 -2
-21 -2 -30 0 -10 3 -4 5 12 5 17 0 24 -2 18 -5z m3747 -33 c0 -5 -2 -10 -4
-10 -3 0 -8 5 -11 10 -3 6 -1 10 4 10 6 0 11 -4 11 -10z m857 -16 c-3 -3 -12
-4 -19 -1 -8 3 -5 6 6 6 11 1 17 -2 13 -5z m429 -31 c-10 -10 -19 5 -10 18 6
11 8 11 12 0 2 -7 1 -15 -2 -18z m-1276 -50 c0 -5 -22 -8 -50 -8 -27 0 -50 3
-50 8 0 4 23 7 50 7 28 0 50 -3 50 -7z m891 -22 c-11 -7 -7 -10 15 -14 28 -4
28 -4 3 -6 -15 0 -32 6 -39 14 -10 13 -9 15 11 15 18 0 21 -2 10 -9z m159 -1
c-20 -13 -40 -13 -40 0 0 6 12 10 28 10 21 0 24 -2 12 -10z m257 -6 c-3 -3
-12 -4 -19 -1 -8 3 -5 6 6 6 11 1 17 -2 13 -5z m-2047 -323 l-1 -26 -14 25
c-20 35 -20 57 0 40 8 -7 15 -24 15 -39z m-2070 -171 c0 -5 -7 -10 -16 -10 -8
0 -12 5 -9 10 3 6 10 10 16 10 5 0 9 -4 9 -10z m-60 -130 c0 -5 -7 -10 -15
-10 -8 0 -15 5 -15 10 0 6 7 10 15 10 8 0 15 -4 15 -10z m210 -97 c-11 -17
-11 -17 -6 0 3 10 6 24 7 30 0 9 2 9 5 0 3 -7 0 -20 -6 -30z m-413 21 c-3 -3
-12 -4 -19 -1 -8 3 -5 6 6 6 11 1 17 -2 13 -5z m29 -20 c-23 -16 -46 -18 -46
-4 0 6 11 10 25 10 14 0 25 5 25 12 0 6 3 8 7 4 5 -4 -1 -14 -11 -22z m-71
-14 c-3 -5 -13 -6 -21 -3 -12 4 -13 8 -3 14 15 9 32 2 24 -11z m130 10 c-22
-6 -25 -8 -9 -9 12 0 27 -8 34 -16 11 -14 10 -14 -14 -5 -15 5 -32 8 -37 4
-10 -6 -12 19 -2 29 3 4 18 6 32 6 25 -1 25 -2 -4 -9z m65 -20 c0 -5 -5 -10
-11 -10 -5 0 -7 5 -4 10 3 6 8 10 11 10 2 0 4 -4 4 -10z m-143 -8 c7 -5 9 -13
3 -22 -7 -11 -11 -11 -24 -1 -29 24 -11 43 21 23z m108 -35 c7 -7 4 -8 -8 -3
-10 3 -30 6 -43 6 -13 0 -24 5 -24 11 0 13 60 2 75 -14z m-60 -137 c-22 -24
-54 -26 -81 -4 -18 15 -17 15 19 10 20 -3 35 -2 33 2 -3 4 7 9 21 10 26 2 26
2 8 -18z m-225 -4 c0 -11 -19 -15 -25 -6 -3 5 1 10 9 10 9 0 16 -2 16 -4z
m320 -11 c10 -12 10 -18 0 -30 -14 -17 -50 -20 -50 -5 0 6 7 10 15 10 8 0 15
5 15 10 0 6 -4 10 -10 10 -5 0 -10 5 -10 10 0 15 26 12 40 -5z m-104 -62 c-1
-1 -12 0 -25 4 -15 4 -19 8 -10 13 10 7 42 -10 35 -17z m170 -21 c-14 -14 -16
-14 -22 1 -3 10 0 24 7 33 11 14 13 14 22 -1 6 -12 4 -22 -7 -33z m-56 29 c0
-12 -20 -25 -27 -18 -7 7 6 27 18 27 5 0 9 -4 9 -9z m-35 -41 c3 -5 1 -10 -4
-10 -6 0 -11 5 -11 10 0 6 2 10 4 10 3 0 8 -4 11 -10z m55 6 c0 -3 -4 -8 -10
-11 -5 -3 -10 -1 -10 4 0 6 5 11 10 11 6 0 10 -2 10 -4z m-110 -17 c0 -14 -18
-19 -49 -13 -44 9 -39 20 9 20 22 0 40 -3 40 -7z m307 -5 c-3 -3 -12 -4 -19
-1 -8 3 -5 6 6 6 11 1 17 -2 13 -5z m-252 -64 c3 -5 1 -10 -4 -10 -6 0 -11 5
-11 10 0 6 2 10 4 10 3 0 8 -4 11 -10z m92 -16 c-3 -3 -12 -4 -19 -1 -8 3 -5
6 6 6 11 1 17 -2 13 -5z m-92 -22 c-3 -3 -11 0 -18 7 -9 10 -8 11 6 5 10 -3
15 -9 12 -12z m149 -1 c3 -4 -6 -6 -19 -3 -14 2 -25 6 -25 8 0 8 39 4 44 -5z
m-189 -11 c3 -5 1 -10 -4 -10 -6 0 -11 5 -11 10 0 6 2 10 4 10 3 0 8 -4 11
-10z m-310 -41 c10 -15 -1 -22 -24 -14 -12 3 -19 11 -16 16 8 12 32 11 40 -2z
m690 -11 c16 -3 15 -5 -8 -10 -15 -3 -25 -3 -22 0 2 3 -1 12 -8 21 -10 14 -10
14 3 5 8 -7 24 -14 35 -16z m-225 2 c0 -5 -2 -10 -4 -10 -3 0 -8 5 -11 10 -3
6 -1 10 4 10 6 0 11 -4 11 -10z m-513 -12 c4 -7 8 -17 8 -23 0 -5 12 -11 28
-13 29 -4 38 -22 10 -22 -33 0 -63 12 -63 25 0 7 -7 15 -15 19 -8 3 -15 10
-15 16 0 14 37 13 47 -2z m63 -18 c0 -5 -4 -10 -10 -10 -5 0 -10 5 -10 10 0 6
5 10 10 10 6 0 10 -4 10 -10z m-25 -60 c8 -13 -25 -13 -45 0 -12 8 -9 10 12
10 15 0 30 -4 33 -10z m185 0 c0 -5 -4 -10 -9 -10 -6 0 -13 5 -16 10 -3 6 1
10 9 10 9 0 16 -4 16 -10z m-263 -6 c-3 -3 -12 -4 -19 -1 -8 3 -5 6 6 6 11 1
17 -2 13 -5z m8 -54 c3 -5 1 -10 -4 -10 -6 0 -11 5 -11 10 0 6 2 10 4 10 3 0
8 -4 11 -10z m282 4 c-3 -3 -12 -4 -19 -1 -8 3 -5 6 6 6 11 1 17 -2 13 -5z
m453 -4 c0 -5 -2 -10 -4 -10 -3 0 -8 5 -11 10 -3 6 -1 10 4 10 6 0 11 -4 11
-10z m-715 -40 c3 -5 -1 -10 -9 -10 -9 0 -16 5 -16 10 0 6 4 10 9 10 6 0 13
-4 16 -10z m104 -26 c27 -25 5 -24 -30 2 -30 23 -31 25 -9 19 14 -4 31 -13 39
-21z m297 5 c8 -14 -10 -11 -32 6 -18 13 -18 14 4 8 12 -3 25 -9 28 -14z
m2394 -8 c7 -15 6 -23 -6 -35 -24 -24 -30 -19 -26 19 5 39 16 45 32 16z
m-2500 -31 c0 -5 -2 -10 -4 -10 -3 0 -8 5 -11 10 -3 6 -1 10 4 10 6 0 11 -4
11 -10z m-70 -20 c0 -5 -4 -10 -10 -10 -5 0 -10 5 -10 10 0 6 5 10 10 10 6 0
10 -4 10 -10z m37 -6 c-3 -3 -12 -4 -19 -1 -8 3 -5 6 6 6 11 1 17 -2 13 -5z
m-22 -44 c3 -5 1 -10 -4 -10 -6 0 -11 5 -11 10 0 6 2 10 4 10 3 0 8 -4 11 -10z
m112 -6 c-3 -3 -12 -4 -19 -1 -8 3 -5 6 6 6 11 1 17 -2 13 -5z m-328 -48 c8
-9 8 -16 2 -20 -5 -4 -12 -2 -16 4 -4 6 -11 8 -16 5 -5 -3 -6 1 -3 9 8 20 18
20 33 2z m258 8 c-3 -3 -12 -4 -19 -1 -8 3 -5 6 6 6 11 1 17 -2 13 -5z m88
-66 c27 -12 35 -31 9 -21 -9 3 -19 1 -23 -6 -4 -6 -15 -9 -24 -5 -13 5 -14 9
-4 25 14 22 10 22 42 7z m-59 -63 c-11 -8 -27 -15 -35 -15 -11 0 -10 4 5 15
10 8 26 14 34 14 11 0 10 -3 -4 -14z"/>
<path d="M422 2870 c0 -14 2 -19 5 -12 2 6 2 18 0 25 -3 6 -5 1 -5 -13z"/>
<path d="M400 2815 c0 -8 4 -15 8 -15 5 0 9 7 9 15 0 8 -4 15 -9 15 -4 0 -8
-7 -8 -15z"/>
<path d="M366 2765 c-3 -8 -1 -15 4 -15 6 0 10 7 10 15 0 8 -2 15 -4 15 -2 0
-6 -7 -10 -15z"/>
<path d="M290 2645 c0 -5 5 -17 10 -25 5 -8 10 -10 10 -5 0 6 -5 17 -10 25 -5
8 -10 11 -10 5z"/>
<path d="M362 2618 c-10 -12 -9 -18 3 -28 19 -16 23 -11 16 19 -6 20 -8 22
-19 9z"/>
<path d="M6418 2529 c14 -5 20 -13 16 -20 -4 -8 -3 -9 4 -5 18 11 2 36 -22 35
-20 0 -20 -1 2 -10z"/>
<path d="M6413 2440 c0 -30 2 -43 4 -27 2 15 2 39 0 55 -2 15 -4 2 -4 -28z"/>
<path d="M6 2423 c-4 -9 -2 -21 4 -27 7 -7 10 -6 10 3 0 7 5 9 11 5 11 -7 29
12 29 31 0 6 -5 3 -10 -5 -6 -10 -10 -11 -10 -2 0 18 -27 15 -34 -5z"/>
<path d="M119 2440 c-11 -61 -8 -76 10 -42 6 11 6 24 0 33 -5 7 -9 12 -10 9z"/>
<path d="M4230 2350 c0 -11 6 -20 14 -20 8 0 17 -6 19 -12 4 -10 6 -10 6 0 1
7 -5 15 -13 18 -8 3 -12 12 -9 20 3 8 0 14 -6 14 -6 0 -11 -9 -11 -20z"/>
<path d="M6399 2273 c0 -38 -2 -76 -4 -85 -2 -10 1 -18 6 -18 5 0 9 38 9 85 0
47 -2 85 -5 85 -3 0 -5 -30 -6 -67z"/>
<path d="M306 2302 c-3 -5 1 -9 9 -9 8 0 12 4 9 9 -3 4 -7 8 -9 8 -2 0 -6 -4
-9 -8z"/>
<path d="M5346 2287 c3 -10 9 -15 12 -12 3 3 0 11 -7 18 -10 9 -11 8 -5 -6z"/>
<path d="M4197 2283 c-4 -3 -7 -16 -7 -27 1 -21 1 -21 15 -2 8 11 15 23 15 28
0 10 -14 11 -23 1z"/>
<path d="M328 2273 c6 -2 18 -2 25 0 6 3 1 5 -13 5 -14 0 -19 -2 -12 -5z"/>
<path d="M5699 2198 c0 -48 -3 -66 -8 -53 -5 11 -7 23 -4 28 2 4 0 7 -6 7 -5
0 -10 -8 -10 -17 1 -10 -2 -28 -6 -39 -6 -19 -3 -21 19 -17 18 4 26 12 26 27
0 48 11 66 41 66 26 0 29 3 29 35 0 34 -1 35 -40 35 l-40 0 -1 -72z m48 46
c-3 -3 -12 -4 -19 -1 -8 3 -5 6 6 6 11 1 17 -2 13 -5z"/>
<path d="M4200 2222 c0 -5 6 -17 14 -27 12 -17 13 -17 18 8 4 21 1 27 -13 27
-11 0 -19 -4 -19 -8z"/>
<path d="M5932 2200 c0 -14 2 -19 5 -12 2 6 2 18 0 25 -3 6 -5 1 -5 -13z"/>
<path d="M5200 2196 c0 -9 4 -16 9 -16 6 0 12 -15 14 -32 l4 -33 1 33 c1 18
-5 40 -13 48 -13 14 -15 14 -15 0z"/>
<path d="M6082 2190 c0 -14 2 -19 5 -12 2 6 2 18 0 25 -3 6 -5 1 -5 -13z"/>
<path d="M4245 2190 c-3 -5 -4 -10 -1 -10 2 0 12 -3 20 -6 12 -5 15 -2 10 10
-7 18 -20 21 -29 6z"/>
<path d="M5270 2183 c0 -14 -6 -23 -15 -23 -8 0 -15 -4 -15 -10 0 -5 11 -10
24 -10 17 0 26 7 30 26 4 15 5 29 1 32 -3 3 -5 -1 -5 -9 0 -11 -2 -11 -10 1
-8 12 -10 11 -10 -7z"/>
<path d="M5580 2187 c0 -8 7 -14 15 -14 8 0 15 4 15 8 0 4 10 10 23 12 13 3 8
5 -15 6 -26 1 -38 -3 -38 -12z"/>
<path d="M4907 2183 c-4 -3 -6 -29 -6 -57 l2 -51 7 55 c7 59 7 64 -3 53z"/>
<path d="M5438 2183 c7 -3 16 -2 19 1 4 3 -2 6 -13 5 -11 0 -14 -3 -6 -6z"/>
<path d="M4950 2170 c12 -8 12 -10 1 -10 -8 0 -12 -2 -10 -5 8 -7 49 6 49 16
0 5 -12 9 -27 9 -22 0 -25 -2 -13 -10z"/>
<path d="M5635 2170 c3 -5 8 -10 11 -10 2 0 4 5 4 10 0 6 -5 10 -11 10 -5 0
-7 -4 -4 -10z"/>
<path d="M5851 2164 c0 -11 3 -14 6 -6 3 7 2 16 -1 19 -3 4 -6 -2 -5 -13z"/>
<path d="M6245 2170 c-3 -5 -1 -10 4 -10 6 0 11 5 11 10 0 6 -2 10 -4 10 -3 0
-8 -4 -11 -10z"/>
<path d="M6501 2168 c0 -9 -4 -25 -7 -35 -5 -17 -5 -17 6 0 6 10 9 25 7 35 -4
15 -5 15 -6 0z"/>
<path d="M5929 2155 c-5 -45 -5 -95 1 -95 11 0 17 78 8 93 -4 7 -8 8 -9 2z"/>
<path d="M6338 2153 c7 -3 16 -2 19 1 4 3 -2 6 -13 5 -11 0 -14 -3 -6 -6z"/>
<path d="M6393 2145 c0 -8 4 -15 9 -15 4 0 8 7 8 15 0 8 -4 15 -8 15 -5 0 -9
-7 -9 -15z"/>
<path d="M4551 2134 c0 -11 3 -14 6 -6 3 7 2 16 -1 19 -3 4 -6 -2 -5 -13z"/>
<path d="M6081 2114 c0 -11 3 -14 6 -6 3 7 2 16 -1 19 -3 4 -6 -2 -5 -13z"/>
<path d="M6430 2100 c0 -11 6 -20 13 -20 7 0 13 9 14 20 1 11 -4 20 -13 20 -8
0 -14 -9 -14 -20z"/>
<path d="M6487 2057 c-5 -56 -4 -62 12 -52 13 7 15 92 2 99 -5 3 -11 -18 -14
-47z"/>
<path d="M5705 2090 c-16 -7 -17 -9 -3 -9 9 -1 20 4 23 9 7 11 7 11 -20 0z"/>
<path d="M5120 2076 c0 -9 5 -16 10 -16 6 0 10 4 10 9 0 6 -4 13 -10 16 -5 3
-10 -1 -10 -9z"/>
<path d="M6341 2054 c0 -11 3 -14 6 -6 3 7 2 16 -1 19 -3 4 -6 -2 -5 -13z"/>
<path d="M4680 2050 c-20 -12 -9 -21 18 -13 12 3 19 9 16 14 -7 11 -15 11 -34
-1z"/>
<path d="M6451 1993 c-1 -51 -2 -53 -28 -54 l-28 -1 25 -8 c14 -4 35 -8 47 -9
21 -1 21 0 8 42 -8 23 -16 51 -18 62 -3 11 -5 -4 -6 -32z"/>
<path d="M6160 2010 c0 -5 5 -10 10 -10 6 0 10 5 10 10 0 6 -4 10 -10 10 -5 0
-10 -4 -10 -10z"/>
<path d="M663 1833 c9 -2 23 -2 30 0 6 3 -1 5 -18 5 -16 0 -22 -2 -12 -5z"/>
<path d="M4770 1800 c0 -5 5 -10 10 -10 6 0 10 5 10 10 0 6 -4 10 -10 10 -5 0
-10 -4 -10 -10z"/>
<path d="M4838 1803 c7 -3 16 -2 19 1 4 3 -2 6 -13 5 -11 0 -14 -3 -6 -6z"/>
<path d="M4875 1800 c-3 -5 -1 -10 4 -10 6 0 11 5 11 10 0 6 -2 10 -4 10 -3 0
-8 -4 -11 -10z"/>
<path d="M4928 1803 c7 -3 16 -2 19 1 4 3 -2 6 -13 5 -11 0 -14 -3 -6 -6z"/>
<path d="M5083 1803 c-22 -8 -14 -20 12 -20 20 0 23 2 14 13 -6 8 -12 14 -13
13 0 0 -7 -3 -13 -6z"/>
<path d="M4588 1773 c7 -3 16 -2 19 1 4 3 -2 6 -13 5 -11 0 -14 -3 -6 -6z"/>
<path d="M4898 1773 c7 -3 16 -2 19 1 4 3 -2 6 -13 5 -11 0 -14 -3 -6 -6z"/>
<path d="M5813 1763 c9 -2 25 -2 35 0 9 3 1 5 -18 5 -19 0 -27 -2 -17 -5z"/>
<path d="M5508 1753 c7 -3 16 -2 19 1 4 3 -2 6 -13 5 -11 0 -14 -3 -6 -6z"/>
<path d="M6385 1730 c3 -5 16 -10 28 -9 21 0 21 1 2 9 -28 12 -37 12 -30 0z"/>
<path d="M5723 1333 c15 -2 37 -2 50 0 12 2 0 4 -28 4 -27 0 -38 -2 -22 -4z"/>
<path d="M5948 1333 c7 -3 16 -2 19 1 4 3 -2 6 -13 5 -11 0 -14 -3 -6 -6z"/>
<path d="M28 1303 c7 -3 16 -2 19 1 4 3 -2 6 -13 5 -11 0 -14 -3 -6 -6z"/>
<path d="M6398 1293 c12 -2 32 -2 45 0 12 2 2 4 -23 4 -25 0 -35 -2 -22 -4z"/>
<path d="M6348 1283 c7 -3 16 -2 19 1 4 3 -2 6 -13 5 -11 0 -14 -3 -6 -6z"/>
<path d="M398 1263 c7 -3 16 -2 19 1 4 3 -2 6 -13 5 -11 0 -14 -3 -6 -6z"/>
<path d="M6058 1253 c7 -3 16 -2 19 1 4 3 -2 6 -13 5 -11 0 -14 -3 -6 -6z"/>
<path d="M628 1203 c12 -2 30 -2 40 0 9 3 -1 5 -23 4 -22 0 -30 -2 -17 -4z"/>
<path d="M4368 1203 c7 -3 16 -2 19 1 4 3 -2 6 -13 5 -11 0 -14 -3 -6 -6z"/>
<path d="M5268 1203 c7 -3 16 -2 19 1 4 3 -2 6 -13 5 -11 0 -14 -3 -6 -6z"/>
<path d="M4908 1183 c6 -2 18 -2 25 0 6 3 1 5 -13 5 -14 0 -19 -2 -12 -5z"/>
<path d="M6408 1173 c6 -2 18 -2 25 0 6 3 1 5 -13 5 -14 0 -19 -2 -12 -5z"/>
<path d="M5508 1163 c6 -2 18 -2 25 0 6 3 1 5 -13 5 -14 0 -19 -2 -12 -5z"/>
<path d="M5593 1163 c9 -2 23 -2 30 0 6 3 -1 5 -18 5 -16 0 -22 -2 -12 -5z"/>
<path d="M6093 1163 c9 -2 23 -2 30 0 6 3 -1 5 -18 5 -16 0 -22 -2 -12 -5z"/>
<path d="M5118 1133 c12 -2 30 -2 40 0 9 3 -1 5 -23 4 -22 0 -30 -2 -17 -4z"/>
<path d="M508 1123 c7 -3 16 -2 19 1 4 3 -2 6 -13 5 -11 0 -14 -3 -6 -6z"/>
<path d="M5375 1110 c3 -5 18 -10 33 -9 24 0 25 1 7 9 -28 12 -47 12 -40 0z"/>
<path d="M5558 1113 c12 -2 32 -2 45 0 12 2 2 4 -23 4 -25 0 -35 -2 -22 -4z"/>
<path d="M5998 1113 c12 -2 32 -2 45 0 12 2 2 4 -23 4 -25 0 -35 -2 -22 -4z"/>
<path d="M6271 1116 c11 -9 130 -15 124 -6 -3 6 -34 10 -67 10 -34 0 -59 -2
-57 -4z"/>
<path d="M188 1093 c6 -2 18 -2 25 0 6 3 1 5 -13 5 -14 0 -19 -2 -12 -5z"/>
<path d="M255 1089 c19 -7 132 -13 124 -5 -2 2 -35 6 -74 8 -40 3 -61 2 -50
-3z"/>
<path d="M5323 1093 c9 -2 23 -2 30 0 6 3 -1 5 -18 5 -16 0 -22 -2 -12 -5z"/>
<path d="M4620 1086 c0 -2 7 -7 16 -10 8 -3 12 -2 9 4 -6 10 -25 14 -25 6z"/>
<path d="M5378 1083 c7 -3 16 -2 19 1 4 3 -2 6 -13 5 -11 0 -14 -3 -6 -6z"/>
<path d="M5446 1080 c6 -6 21 -6 39 -1 30 9 30 9 -9 10 -26 1 -37 -2 -30 -9z"/>
<path d="M4188 1073 c12 -2 30 -2 40 0 9 3 -1 5 -23 4 -22 0 -30 -2 -17 -4z"/>
<path d="M4968 1073 c12 -2 30 -2 40 0 9 3 -1 5 -23 4 -22 0 -30 -2 -17 -4z"/>
<path d="M5757 1069 c7 -7 15 -10 18 -7 3 3 -2 9 -12 12 -14 6 -15 5 -6 -5z"/>
<path d="M4568 1063 c7 -3 16 -2 19 1 4 3 -2 6 -13 5 -11 0 -14 -3 -6 -6z"/>
<path d="M4428 1053 c6 -2 18 -2 25 0 6 3 1 5 -13 5 -14 0 -19 -2 -12 -5z"/>
<path d="M6368 1053 c7 -3 16 -2 19 1 4 3 -2 6 -13 5 -11 0 -14 -3 -6 -6z"/>
<path d="M1050 1040 c0 -5 5 -10 10 -10 6 0 10 5 10 10 0 6 -4 10 -10 10 -5 0
-10 -4 -10 -10z"/>
<path d="M4133 1043 c9 -2 23 -2 30 0 6 3 -1 5 -18 5 -16 0 -22 -2 -12 -5z"/>
<path d="M4298 1043 c12 -2 30 -2 40 0 9 3 -1 5 -23 4 -22 0 -30 -2 -17 -4z"/>
<path d="M4843 1043 c9 -2 23 -2 30 0 6 3 -1 5 -18 5 -16 0 -22 -2 -12 -5z"/>
<path d="M5273 1042 c-6 -4 11 -7 38 -6 28 1 52 4 54 6 8 8 -80 8 -92 0z"/>
<path d="M5750 1040 c-41 -4 -68 -8 -60 -9 26 -6 123 1 144 9 12 5 14 8 6 8
-8 -1 -49 -4 -90 -8z"/>
<path d="M5915 1041 c50 -15 105 -20 105 -10 0 5 -15 9 -34 9 -18 0 -49 2 -67
5 -34 5 -34 5 -4 -4z"/>
<path d="M5158 1033 c7 -3 16 -2 19 1 4 3 -2 6 -13 5 -11 0 -14 -3 -6 -6z"/>
<path d="M5588 1033 c12 -2 30 -2 40 0 9 3 -1 5 -23 4 -22 0 -30 -2 -17 -4z"/>
<path d="M6087 1033 c18 -2 50 -2 70 0 21 2 7 4 -32 4 -38 0 -55 -2 -38 -4z"/>
<path d="M6233 1033 c9 -2 25 -2 35 0 9 3 1 5 -18 5 -19 0 -27 -2 -17 -5z"/>
<path d="M5066 1023 c-4 -4 -31 -10 -59 -14 -47 -6 -44 -6 28 -7 57 0 74 2 60
9 -15 7 -6 8 30 5 33 -3 43 -2 30 4 -25 11 -79 12 -89 3z"/>
<path d="M5220 1020 c0 -6 7 -10 15 -10 8 0 15 2 15 4 0 2 -7 6 -15 10 -8 3
-15 1 -15 -4z"/>
<path d="M5428 1023 c7 -3 16 -2 19 1 4 3 -2 6 -13 5 -11 0 -14 -3 -6 -6z"/>
<path d="M990 1005 c-13 -15 -13 -15 34 -29 11 -4 11 0 2 20 -13 28 -19 29
-36 9z"/>
<path d="M4158 1003 c6 -2 18 -2 25 0 6 3 1 5 -13 5 -14 0 -19 -2 -12 -5z"/>
<path d="M6298 993 c7 -3 16 -2 19 1 4 3 -2 6 -13 5 -11 0 -14 -3 -6 -6z"/>
<path d="M628 983 c6 -2 18 -2 25 0 6 3 1 5 -13 5 -14 0 -19 -2 -12 -5z"/>
<path d="M4956 981 c-4 -5 3 -7 14 -4 23 6 26 13 6 13 -8 0 -17 -4 -20 -9z"/>
<path d="M5208 983 c6 -2 18 -2 25 0 6 3 1 5 -13 5 -14 0 -19 -2 -12 -5z"/>
<path d="M5593 983 c15 -2 37 -2 50 0 12 2 0 4 -28 4 -27 0 -38 -2 -22 -4z"/>
<path d="M5043 973 c9 -2 25 -2 35 0 9 3 1 5 -18 5 -19 0 -27 -2 -17 -5z"/>
<path d="M528 963 c6 -2 18 -2 25 0 6 3 1 5 -13 5 -14 0 -19 -2 -12 -5z"/>
<path d="M5583 963 c9 -2 23 -2 30 0 6 3 -1 5 -18 5 -16 0 -22 -2 -12 -5z"/>
<path d="M5678 963 c7 -3 16 -2 19 1 4 3 -2 6 -13 5 -11 0 -14 -3 -6 -6z"/>
<path d="M5258 953 c18 -2 45 -2 60 0 15 2 0 4 -33 4 -33 0 -45 -2 -27 -4z"/>
<path d="M5377 949 c8 -8 22 -8 50 -1 l38 10 -49 1 c-37 1 -47 -2 -39 -10z"/>
<path d="M5818 953 c12 -2 30 -2 40 0 9 3 -1 5 -23 4 -22 0 -30 -2 -17 -4z"/>
<path d="M6233 953 c9 -2 23 -2 30 0 6 3 -1 5 -18 5 -16 0 -22 -2 -12 -5z"/>
<path d="M6358 953 c7 -3 16 -2 19 1 4 3 -2 6 -13 5 -11 0 -14 -3 -6 -6z"/>
<path d="M4660 939 c0 -4 16 -9 35 -11 19 -2 35 0 35 5 0 5 15 5 33 2 17 -4
29 -4 25 0 -9 10 -128 13 -128 4z"/>
<path d="M5738 943 c7 -3 16 -2 19 1 4 3 -2 6 -13 5 -11 0 -14 -3 -6 -6z"/>
<path d="M5905 940 c11 -5 45 -8 75 -8 42 0 49 2 30 8 -35 11 -131 11 -105 0z"/>
<path d="M4433 933 c15 -2 39 -2 55 0 15 2 2 4 -28 4 -30 0 -43 -2 -27 -4z"/>
<path d="M6075 920 c3 -5 8 -10 11 -10 2 0 4 5 4 10 0 6 -5 10 -11 10 -5 0 -7
-4 -4 -10z"/>
<path d="M6150 920 c-30 -6 -26 -7 25 -8 33 0 80 3 105 7 42 8 41 8 -25 8 -38
0 -86 -3 -105 -7z"/>
<path d="M5030 910 c-11 -7 -7 -10 18 -10 17 0 32 5 32 10 0 13 -30 13 -50 0z"/>
<path d="M5248 913 c7 -3 16 -2 19 1 4 3 -2 6 -13 5 -11 0 -14 -3 -6 -6z"/>
<path d="M5490 910 c14 -4 57 -8 95 -8 70 1 70 1 20 8 -27 5 -70 8 -95 8 -37
0 -40 -1 -20 -8z"/>
<path d="M4070 902 c0 -4 16 -9 35 -10 19 -2 35 2 35 8 0 5 -16 10 -35 10 -19
0 -35 -4 -35 -8z"/>
<path d="M5300 900 c25 -8 157 -13 149 -6 -2 2 -42 6 -89 8 -47 3 -74 2 -60
-2z"/>
<path d="M78 893 c7 -3 16 -2 19 1 4 3 -2 6 -13 5 -11 0 -14 -3 -6 -6z"/>
<path d="M600 880 c0 -5 12 -10 28 -9 24 0 25 1 7 9 -27 12 -35 12 -35 0z"/>
<path d="M5698 883 c7 -3 16 -2 19 1 4 3 -2 6 -13 5 -11 0 -14 -3 -6 -6z"/>
<path d="M6425 880 c-15 -6 -11 -7 17 -7 23 1 33 4 25 9 -14 9 -16 9 -42 -2z"/>
<path d="M4438 873 c6 -2 18 -2 25 0 6 3 1 5 -13 5 -14 0 -19 -2 -12 -5z"/>
<path d="M4728 873 c6 -2 18 -2 25 0 6 3 1 5 -13 5 -14 0 -19 -2 -12 -5z"/>
<path d="M6288 873 c18 -2 45 -2 60 0 15 2 0 4 -33 4 -33 0 -45 -2 -27 -4z"/>
<path d="M980 860 c0 -5 4 -10 9 -10 6 0 13 5 16 10 3 6 -1 10 -9 10 -9 0 -16
-4 -16 -10z"/>
<path d="M5408 863 c6 -2 18 -2 25 0 6 3 1 5 -13 5 -14 0 -19 -2 -12 -5z"/>
<path d="M5863 863 c15 -2 39 -2 55 0 15 2 2 4 -28 4 -30 0 -43 -2 -27 -4z"/>
<path d="M6008 863 c7 -3 16 -2 19 1 4 3 -2 6 -13 5 -11 0 -14 -3 -6 -6z"/>
<path d="M420 851 c0 -10 50 -25 58 -16 3 3 0 5 -7 5 -7 0 -9 5 -6 10 4 6 -5
10 -19 10 -14 0 -26 -4 -26 -9z"/>
<path d="M635 840 c45 -11 95 -11 95 0 0 6 -27 9 -62 9 -50 -1 -57 -3 -33 -9z"/>
<path d="M5278 843 c12 -2 32 -2 45 0 12 2 2 4 -23 4 -25 0 -35 -2 -22 -4z"/>
<path d="M4298 833 c7 -3 16 -2 19 1 4 3 -2 6 -13 5 -11 0 -14 -3 -6 -6z"/>
<path d="M5028 833 c6 -2 18 -2 25 0 6 3 1 5 -13 5 -14 0 -19 -2 -12 -5z"/>
<path d="M202 825 c3 -3 50 -7 104 -9 58 -3 89 -1 74 4 -28 9 -186 13 -178 5z"/>
<path d="M55 810 c-17 -7 -15 -9 13 -9 17 -1 32 4 32 9 0 12 -17 12 -45 0z"/>
<path d="M4558 813 c6 -2 18 -2 25 0 6 3 1 5 -13 5 -14 0 -19 -2 -12 -5z"/>
<path d="M6418 813 c6 -2 18 -2 25 0 6 3 1 5 -13 5 -14 0 -19 -2 -12 -5z"/>
<path d="M568 793 c6 -2 18 -2 25 0 6 3 1 5 -13 5 -14 0 -19 -2 -12 -5z"/>
<path d="M192 779 c21 -5 47 -5 59 -1 15 6 4 9 -37 9 -55 1 -56 0 -22 -8z"/>
<path d="M1189 763 c-12 -15 -12 -16 4 -10 10 4 25 7 33 7 9 0 12 5 9 10 -9
15 -31 12 -46 -7z"/>
<path d="M593 763 c9 -2 25 -2 35 0 9 3 1 5 -18 5 -19 0 -27 -2 -17 -5z"/>
<path d="M160 741 c-31 -7 -28 -8 28 -12 35 -2 66 -1 70 3 4 3 16 8 27 11 31
7 -86 5 -125 -2z"/>
<path d="M876 728 c3 -4 11 -5 19 -1 21 7 19 12 -4 10 -11 0 -18 -5 -15 -9z"/>
<path d="M4165 731 c11 -4 54 -5 95 -1 l75 7 -95 1 c-56 0 -87 -3 -75 -7z"/>
<path d="M643 723 c15 -2 39 -2 55 0 15 2 2 4 -28 4 -30 0 -43 -2 -27 -4z"/>
<path d="M4543 723 c9 -2 23 -2 30 0 6 3 -1 5 -18 5 -16 0 -22 -2 -12 -5z"/>
<path d="M4898 723 c6 -2 18 -2 25 0 6 3 1 5 -13 5 -14 0 -19 -2 -12 -5z"/>
<path d="M4973 723 c9 -2 25 -2 35 0 9 3 1 5 -18 5 -19 0 -27 -2 -17 -5z"/>
<path d="M5093 723 c9 -2 23 -2 30 0 6 3 -1 5 -18 5 -16 0 -22 -2 -12 -5z"/>
<path d="M5283 723 c9 -2 25 -2 35 0 9 3 1 5 -18 5 -19 0 -27 -2 -17 -5z"/>
<path d="M5431 706 c12 -10 60 -16 54 -6 -3 5 -18 10 -32 10 -15 0 -24 -2 -22
-4z"/>
<path d="M5003 693 c9 -2 23 -2 30 0 6 3 -1 5 -18 5 -16 0 -22 -2 -12 -5z"/>
<path d="M840 680 c0 -5 7 -10 15 -10 8 0 15 5 15 10 0 6 -7 10 -15 10 -8 0
-15 -4 -15 -10z"/>
<path d="M4735 680 c-4 -6 22 -10 72 -9 57 1 70 3 48 9 -45 11 -113 11 -120 0z"/>
<path d="M88 673 c6 -2 18 -2 25 0 6 3 1 5 -13 5 -14 0 -19 -2 -12 -5z"/>
<path d="M4378 673 c6 -2 18 -2 25 0 6 3 1 5 -13 5 -14 0 -19 -2 -12 -5z"/>
<path d="M4478 673 c12 -2 30 -2 40 0 9 3 -1 5 -23 4 -22 0 -30 -2 -17 -4z"/>
<path d="M6138 673 c6 -2 18 -2 25 0 6 3 1 5 -13 5 -14 0 -19 -2 -12 -5z"/>
<path d="M5238 663 c6 -2 18 -2 25 0 6 3 1 5 -13 5 -14 0 -19 -2 -12 -5z"/>
<path d="M5048 653 c7 -3 16 -2 19 1 4 3 -2 6 -13 5 -11 0 -14 -3 -6 -6z"/>
<path d="M5858 653 c12 -2 30 -2 40 0 9 3 -1 5 -23 4 -22 0 -30 -2 -17 -4z"/>
<path d="M6333 653 c9 -2 23 -2 30 0 6 3 -1 5 -18 5 -16 0 -22 -2 -12 -5z"/>
<path d="M6008 643 c7 -3 16 -2 19 1 4 3 -2 6 -13 5 -11 0 -14 -3 -6 -6z"/>
<path d="M940 630 c0 -5 5 -10 10 -10 6 0 10 5 10 10 0 6 -4 10 -10 10 -5 0
-10 -4 -10 -10z"/>
<path d="M4238 633 c7 -3 16 -2 19 1 4 3 -2 6 -13 5 -11 0 -14 -3 -6 -6z"/>
<path d="M5538 633 c12 -2 32 -2 45 0 12 2 2 4 -23 4 -25 0 -35 -2 -22 -4z"/>
<path d="M5113 615 c0 -6 35 -11 79 -13 77 -2 106 10 49 23 -41 9 -128 2 -128
-10z"/>
<path d="M5321 626 c2 -2 36 -6 74 -10 48 -4 65 -3 55 4 -13 9 -139 15 -129 6z"/>
<path d="M4993 613 c9 -2 25 -2 35 0 9 3 1 5 -18 5 -19 0 -27 -2 -17 -5z"/>
<path d="M5068 613 c6 -2 18 -2 25 0 6 3 1 5 -13 5 -14 0 -19 -2 -12 -5z"/>
<path d="M4413 603 c9 -2 23 -2 30 0 6 3 -1 5 -18 5 -16 0 -22 -2 -12 -5z"/>
<path d="M5298 603 c7 -3 16 -2 19 1 4 3 -2 6 -13 5 -11 0 -14 -3 -6 -6z"/>
<path d="M5710 606 c0 -2 14 -6 30 -8 17 -3 30 -1 30 4 0 4 -13 8 -30 8 -16 0
-30 -2 -30 -4z"/>
<path d="M6228 593 c12 -2 30 -2 40 0 9 3 -1 5 -23 4 -22 0 -30 -2 -17 -4z"/>
<path d="M6438 593 c7 -3 16 -2 19 1 4 3 -2 6 -13 5 -11 0 -14 -3 -6 -6z"/>
<path d="M544 581 c6 -9 86 -5 95 5 2 2 -19 4 -48 4 -29 0 -50 -4 -47 -9z"/>
<path d="M28 573 c7 -3 16 -2 19 1 4 3 -2 6 -13 5 -11 0 -14 -3 -6 -6z"/>
<path d="M5698 573 c12 -2 30 -2 40 0 9 3 -1 5 -23 4 -22 0 -30 -2 -17 -4z"/>
<path d="M6123 573 c9 -2 23 -2 30 0 6 3 -1 5 -18 5 -16 0 -22 -2 -12 -5z"/>
<path d="M6428 573 c7 -3 16 -2 19 1 4 3 -2 6 -13 5 -11 0 -14 -3 -6 -6z"/>
<path d="M713 563 c9 -2 25 -2 35 0 9 3 1 5 -18 5 -19 0 -27 -2 -17 -5z"/>
<path d="M5540 560 c14 -4 59 -8 100 -8 65 0 70 1 35 9 -54 11 -170 10 -135
-1z"/>
<path d="M5971 560 c7 -4 39 -10 69 -13 33 -4 47 -3 35 2 -26 11 -123 21 -104
11z"/>
<path d="M6260 555 c96 -16 125 -18 94 -5 -11 4 -56 11 -100 14 l-79 5 85 -14z"/>
<path d="M6473 563 c9 -2 23 -2 30 0 6 3 -1 5 -18 5 -16 0 -22 -2 -12 -5z"/>
<path d="M213 553 c9 -2 25 -2 35 0 9 3 1 5 -18 5 -19 0 -27 -2 -17 -5z"/>
<path d="M4515 550 c-17 -7 -16 -9 10 -9 17 -1 55 -4 85 -7 37 -3 50 -2 40 4
-22 14 -112 22 -135 12z"/>
<path d="M4763 553 c9 -2 25 -2 35 0 9 3 1 5 -18 5 -19 0 -27 -2 -17 -5z"/>
<path d="M4843 543 c9 -2 23 -2 30 0 6 3 -1 5 -18 5 -16 0 -22 -2 -12 -5z"/>
<path d="M5445 540 c39 -3 74 -3 80 2 5 4 -27 7 -70 6 l-80 -1 70 -7z"/>
<path d="M4121 536 c2 -2 38 -6 79 -9 48 -4 68 -3 55 3 -19 8 -143 14 -134 6z"/>
<path d="M5665 529 c-13 -5 5 -8 49 -8 38 -1 67 1 65 3 -10 8 -96 12 -114 5z"/>
<path d="M6168 533 c6 -2 18 -2 25 0 6 3 1 5 -13 5 -14 0 -19 -2 -12 -5z"/>
<path d="M4855 510 c17 -4 41 -8 55 -8 22 0 22 1 -5 8 -16 4 -41 8 -55 8 -22
0 -22 -1 5 -8z"/>
<path d="M5163 513 c15 -2 37 -2 50 0 12 2 0 4 -28 4 -27 0 -38 -2 -22 -4z"/>
<path d="M393 493 c15 -2 37 -2 50 0 12 2 0 4 -28 4 -27 0 -38 -2 -22 -4z"/>
<path d="M598 493 c7 -3 16 -2 19 1 4 3 -2 6 -13 5 -11 0 -14 -3 -6 -6z"/>
<path d="M6313 493 c9 -2 25 -2 35 0 9 3 1 5 -18 5 -19 0 -27 -2 -17 -5z"/>
<path d="M13 483 c9 -2 25 -2 35 0 9 3 1 5 -18 5 -19 0 -27 -2 -17 -5z"/>
<path d="M3853 483 c9 -2 25 -2 35 0 9 3 1 5 -18 5 -19 0 -27 -2 -17 -5z"/>
<path d="M68 463 c6 -2 18 -2 25 0 6 3 1 5 -13 5 -14 0 -19 -2 -12 -5z"/>
<path d="M307 463 c18 -2 50 -2 70 0 21 2 7 4 -32 4 -38 0 -55 -2 -38 -4z"/>
<path d="M4064 458 c-3 -4 15 -8 40 -8 25 0 46 2 46 4 0 8 -82 11 -86 4z"/>
<path d="M4701 466 c2 -2 60 -5 129 -8 75 -3 107 -2 80 3 -45 8 -217 12 -209
5z"/>
<path d="M5978 463 c12 -2 32 -2 45 0 12 2 2 4 -23 4 -25 0 -35 -2 -22 -4z"/>
<path d="M6283 463 c9 -2 23 -2 30 0 6 3 -1 5 -18 5 -16 0 -22 -2 -12 -5z"/>
<path d="M173 453 c9 -2 25 -2 35 0 9 3 1 5 -18 5 -19 0 -27 -2 -17 -5z"/>
<path d="M5448 453 c7 -3 16 -2 19 1 4 3 -2 6 -13 5 -11 0 -14 -3 -6 -6z"/>
<path d="M5613 453 c9 -2 25 -2 35 0 9 3 1 5 -18 5 -19 0 -27 -2 -17 -5z"/>
<path d="M6093 453 c9 -2 23 -2 30 0 6 3 -1 5 -18 5 -16 0 -22 -2 -12 -5z"/>
<path d="M6418 453 c12 -2 32 -2 45 0 12 2 2 4 -23 4 -25 0 -35 -2 -22 -4z"/>
<path d="M5048 443 c6 -2 18 -2 25 0 6 3 1 5 -13 5 -14 0 -19 -2 -12 -5z"/>
<path d="M5185 431 l-50 -7 45 -7 c25 -4 86 -12 135 -17 50 -5 110 -12 135
-15 25 -2 5 4 -45 15 -49 11 -110 20 -135 21 -41 1 -43 2 -15 9 26 7 27 8 5 7
-14 0 -47 -3 -75 -6z"/>
<path d="M5303 433 c9 -2 25 -2 35 0 9 3 1 5 -18 5 -19 0 -27 -2 -17 -5z"/>
<path d="M408 423 c7 -3 16 -2 19 1 4 3 -2 6 -13 5 -11 0 -14 -3 -6 -6z"/>
<path d="M508 423 c6 -2 18 -2 25 0 6 3 1 5 -13 5 -14 0 -19 -2 -12 -5z"/>
<path d="M608 423 c12 -2 30 -2 40 0 9 3 -1 5 -23 4 -22 0 -30 -2 -17 -4z"/>
<path d="M4295 419 c-28 -6 -27 -7 15 -10 81 -6 188 -4 177 3 -6 3 -41 6 -78
6 -38 0 -72 2 -76 4 -4 3 -21 1 -38 -3z"/>
<path d="M4793 423 c9 -2 23 -2 30 0 6 3 -1 5 -18 5 -16 0 -22 -2 -12 -5z"/>
<path d="M5410 421 c23 -16 95 -24 146 -16 25 3 44 8 42 10 -1 1 -48 6 -103 9
-69 5 -95 4 -85 -3z"/>
<path d="M908 413 c7 -3 16 -2 19 1 4 3 -2 6 -13 5 -11 0 -14 -3 -6 -6z"/>
<path d="M4543 413 c15 -2 37 -2 50 0 12 2 0 4 -28 4 -27 0 -38 -2 -22 -4z"/>
<path d="M4683 413 c9 -2 23 -2 30 0 6 3 -1 5 -18 5 -16 0 -22 -2 -12 -5z"/>
<path d="M348 403 c34 -2 90 -2 125 0 34 2 6 3 -63 3 -69 0 -97 -1 -62 -3z"/>
<path d="M3985 400 c3 -5 18 -10 32 -10 32 0 28 5 -10 14 -19 4 -26 3 -22 -4z"/>
<path d="M131 396 c2 -2 40 -6 84 -8 45 -3 67 -2 50 2 -30 8 -142 13 -134 6z"/>
<path d="M4188 393 c7 -3 16 -2 19 1 4 3 -2 6 -13 5 -11 0 -14 -3 -6 -6z"/>
<path d="M4905 390 c19 -8 123 -14 114 -6 -2 2 -33 6 -69 9 -40 4 -57 2 -45
-3z"/>
<path d="M5693 393 c9 -2 23 -2 30 0 6 3 -1 5 -18 5 -16 0 -22 -2 -12 -5z"/>
<path d="M8 383 c7 -3 16 -2 19 1 4 3 -2 6 -13 5 -11 0 -14 -3 -6 -6z"/>
<path d="M5170 380 c8 -5 35 -9 60 -9 41 1 42 2 15 9 -16 4 -43 8 -60 9 -23 0
-26 -2 -15 -9z"/>
<path d="M5753 383 c9 -2 25 -2 35 0 9 3 1 5 -18 5 -19 0 -27 -2 -17 -5z"/>
<path d="M6448 383 c6 -2 18 -2 25 0 6 3 1 5 -13 5 -14 0 -19 -2 -12 -5z"/>
<path d="M5588 373 c7 -3 16 -2 19 1 4 3 -2 6 -13 5 -11 0 -14 -3 -6 -6z"/>
<path d="M6263 373 c15 -2 39 -2 55 0 15 2 2 4 -28 4 -30 0 -43 -2 -27 -4z"/>
<path d="M4173 363 c9 -2 23 -2 30 0 6 3 -1 5 -18 5 -16 0 -22 -2 -12 -5z"/>
<path d="M5293 363 c9 -2 23 -2 30 0 6 3 -1 5 -18 5 -16 0 -22 -2 -12 -5z"/>
<path d="M5803 363 c-24 -2 -43 -8 -43 -12 0 -14 46 -16 190 -11 l135 5 -105
7 c-58 3 -112 8 -120 10 -8 3 -34 3 -57 1z"/>
<path d="M6038 363 c23 -2 61 -2 85 0 23 2 4 4 -43 4 -47 0 -66 -2 -42 -4z"/>
<path d="M857 354 c-4 -4 -7 -14 -7 -23 0 -11 3 -12 11 -4 6 6 10 16 7 23 -2
6 -7 8 -11 4z"/>
<path d="M5663 353 c15 -2 39 -2 55 0 15 2 2 4 -28 4 -30 0 -43 -2 -27 -4z"/>
<path d="M6385 349 c56 -11 87 -11 80 1 -3 6 -32 9 -63 9 -57 -1 -57 -1 -17
-10z"/>
<path d="M423 343 c9 -2 23 -2 30 0 6 3 -1 5 -18 5 -16 0 -22 -2 -12 -5z"/>
<path d="M4833 343 c9 -2 25 -2 35 0 9 3 1 5 -18 5 -19 0 -27 -2 -17 -5z"/>
<path d="M5486 340 c6 -6 73 -12 150 -14 76 -2 101 -1 54 1 -47 2 -89 8 -94
13 -6 6 -35 10 -65 10 -37 0 -52 -3 -45 -10z"/>
<path d="M0 332 c0 -4 17 -8 38 -8 20 1 71 -2 112 -6 l75 -7 -50 14 c-53 16
-175 20 -175 7z"/>
<path d="M488 333 c6 -2 18 -2 25 0 6 3 1 5 -13 5 -14 0 -19 -2 -12 -5z"/>
<path d="M4110 320 c-12 -8 -10 -10 8 -10 13 0 20 4 17 10 -7 12 -6 12 -25 0z"/>
<path d="M4518 323 c7 -3 16 -2 19 1 4 3 -2 6 -13 5 -11 0 -14 -3 -6 -6z"/>
<path d="M4593 323 c9 -2 25 -2 35 0 9 3 1 5 -18 5 -19 0 -27 -2 -17 -5z"/>
<path d="M5265 320 c-16 -7 -12 -9 20 -10 22 0 51 -1 65 -2 14 -1 48 0 75 1
l50 4 -50 7 c-67 11 -136 11 -160 0z"/>
<path d="M280 310 c20 -13 40 -13 40 0 0 6 -12 10 -27 10 -22 0 -25 -2 -13
-10z"/>
<path d="M6250 310 c-11 -7 4 -10 49 -10 35 0 62 2 60 4 -11 10 -96 15 -109 6z"/>
<path d="M538 303 c6 -2 18 -2 25 0 6 3 1 5 -13 5 -14 0 -19 -2 -12 -5z"/>
<path d="M3933 303 c9 -2 23 -2 30 0 6 3 -1 5 -18 5 -16 0 -22 -2 -12 -5z"/>
<path d="M5930 299 c28 -5 48 -5 54 1 7 7 -9 10 -44 9 l-55 -1 45 -9z"/>
<path d="M6098 303 c7 -3 16 -2 19 1 4 3 -2 6 -13 5 -11 0 -14 -3 -6 -6z"/>
<path d="M4180 293 c8 -3 17 -10 20 -14 4 -5 22 -11 40 -15 35 -5 34 -5 -9 15
-24 12 -48 21 -55 20 -6 0 -4 -3 4 -6z"/>
<path d="M4340 290 c-21 -4 -26 -8 -14 -9 12 0 37 -4 55 -8 31 -6 33 -5 20 10
-7 9 -16 16 -20 16 -3 -1 -22 -5 -41 -9z"/>
<path d="M593 283 c9 -2 23 -2 30 0 6 3 -1 5 -18 5 -16 0 -22 -2 -12 -5z"/>
<path d="M4988 283 c7 -3 16 -2 19 1 4 3 -2 6 -13 5 -11 0 -14 -3 -6 -6z"/>
<path d="M6148 283 c6 -2 18 -2 25 0 6 3 1 5 -13 5 -14 0 -19 -2 -12 -5z"/>
<path d="M6380 281 c8 -5 41 -12 74 -16 46 -5 57 -4 54 7 -3 9 -27 14 -74 15
-43 2 -63 0 -54 -6z"/>
<path d="M3933 273 c9 -2 23 -2 30 0 6 3 -1 5 -18 5 -16 0 -22 -2 -12 -5z"/>
<path d="M6293 273 c9 -2 23 -2 30 0 6 3 -1 5 -18 5 -16 0 -22 -2 -12 -5z"/>
<path d="M821 256 c-10 -12 -8 -13 8 -9 12 3 18 9 15 14 -7 12 -10 11 -23 -5z"/>
<path d="M1176 254 c-8 -22 -8 -24 8 -24 15 0 28 24 19 34 -11 10 -21 7 -27
-10z"/>
<path d="M4018 263 c7 -3 16 -2 19 1 4 3 -2 6 -13 5 -11 0 -14 -3 -6 -6z"/>
<path d="M6243 253 c20 -2 54 -2 75 0 20 2 3 4 -38 4 -41 0 -58 -2 -37 -4z"/>
<path d="M26 231 c-3 -4 6 -6 19 -3 14 2 25 6 25 8 0 8 -39 4 -44 -5z"/>
<path d="M568 233 c6 -2 18 -2 25 0 6 3 1 5 -13 5 -14 0 -19 -2 -12 -5z"/>
<path d="M840 220 c0 -11 4 -20 9 -20 5 0 7 9 4 20 -3 11 -7 20 -9 20 -2 0 -4
-9 -4 -20z"/>
<path d="M363 213 c9 -2 23 -2 30 0 6 3 -1 5 -18 5 -16 0 -22 -2 -12 -5z"/>
<path d="M881 204 c0 -11 3 -14 6 -6 3 7 2 16 -1 19 -3 4 -6 -2 -5 -13z"/>
<path d="M4981 215 c8 -7 78 -9 85 -2 4 4 -14 7 -41 7 -27 0 -46 -2 -44 -5z"/>
<path d="M5148 213 c6 -2 18 -2 25 0 6 3 1 5 -13 5 -14 0 -19 -2 -12 -5z"/>
<path d="M5300 210 c14 -4 34 -8 45 -8 16 0 15 2 -5 8 -14 4 -34 8 -45 8 -16
0 -15 -2 5 -8z"/>
<path d="M5788 213 c6 -2 18 -2 25 0 6 3 1 5 -13 5 -14 0 -19 -2 -12 -5z"/>
<path d="M5458 203 c12 -2 32 -2 45 0 12 2 2 4 -23 4 -25 0 -35 -2 -22 -4z"/>
<path d="M210 189 c0 -5 21 -9 47 -9 25 0 44 2 42 4 -10 8 -89 13 -89 5z"/>
<path d="M4385 190 c3 -5 25 -10 48 -9 36 1 38 2 17 9 -36 12 -72 12 -65 0z"/>
<path d="M6418 193 c12 -2 32 -2 45 0 12 2 2 4 -23 4 -25 0 -35 -2 -22 -4z"/>
<path d="M384 182 c5 -8 66 -4 66 4 0 2 -16 4 -36 4 -19 0 -33 -4 -30 -8z"/>
<path d="M4073 183 c9 -2 25 -2 35 0 9 3 1 5 -18 5 -19 0 -27 -2 -17 -5z"/>
<path d="M623 173 c9 -2 23 -2 30 0 6 3 -1 5 -18 5 -16 0 -22 -2 -12 -5z"/>
<path d="M4200 171 c0 -9 80 -5 89 5 2 2 -17 4 -42 4 -26 0 -47 -4 -47 -9z"/>
<path d="M4020 160 c30 -5 61 -4 70 1 10 5 -10 8 -55 7 l-70 0 55 -8z"/>
<path d="M915 150 c3 -5 10 -10 16 -10 5 0 9 5 9 10 0 6 -7 10 -16 10 -8 0
-12 -4 -9 -10z"/>
<path d="M1070 150 c0 -5 5 -10 10 -10 6 0 10 5 10 10 0 6 -4 10 -10 10 -5 0
-10 -4 -10 -10z"/>
<path d="M4877 153 c-3 -5 11 -10 31 -11 20 -2 46 -5 57 -8 16 -4 17 -3 5 5
-23 14 -87 24 -93 14z"/>
<path d="M5908 153 c12 -2 32 -2 45 0 12 2 2 4 -23 4 -25 0 -35 -2 -22 -4z"/>
<path d="M13 143 c9 -2 25 -2 35 0 9 3 1 5 -18 5 -19 0 -27 -2 -17 -5z"/>
<path d="M425 139 c-3 -3 28 -11 68 -18 105 -18 119 -19 147 -11 22 6 19 8
-20 13 -139 18 -192 22 -195 16z"/>
<path d="M1000 144 c8 -4 25 -15 37 -26 26 -24 47 -21 29 4 -7 10 -28 20 -47
23 -19 3 -27 2 -19 -1z"/>
<path d="M3775 139 c4 -5 22 -9 42 -9 45 0 40 5 -10 13 -22 3 -35 2 -32 -4z"/>
<path d="M4553 143 c9 -2 23 -2 30 0 6 3 -1 5 -18 5 -16 0 -22 -2 -12 -5z"/>
<path d="M5118 143 c12 -2 30 -2 40 0 9 3 -1 5 -23 4 -22 0 -30 -2 -17 -4z"/>
<path d="M4206 130 c12 -5 62 -5 110 -1 l89 8 -110 1 c-71 0 -102 -2 -89 -8z"/>
<path d="M298 123 c7 -3 16 -2 19 1 4 3 -2 6 -13 5 -11 0 -14 -3 -6 -6z"/>
<path d="M4625 120 c17 -4 48 -8 70 -8 l40 0 -40 9 c-22 4 -53 8 -70 7 l-30 0
30 -8z"/>
<path d="M5288 123 c7 -3 16 -2 19 1 4 3 -2 6 -13 5 -11 0 -14 -3 -6 -6z"/>
<path d="M5503 123 c15 -2 37 -2 50 0 12 2 0 4 -28 4 -27 0 -38 -2 -22 -4z"/>
<path d="M6113 123 c9 -2 25 -2 35 0 9 3 1 5 -18 5 -19 0 -27 -2 -17 -5z"/>
<path d="M972 105 c-17 -19 -1 -19 24 0 14 11 15 14 4 14 -8 0 -21 -6 -28 -14z"/>
<path d="M5353 113 c9 -2 23 -2 30 0 6 3 -1 5 -18 5 -16 0 -22 -2 -12 -5z"/>
<path d="M6245 109 c22 -4 49 -8 60 -8 l20 0 -20 9 c-11 5 -38 8 -60 8 l-40 0
40 -9z"/>
<path d="M5458 103 c12 -2 32 -2 45 0 12 2 2 4 -23 4 -25 0 -35 -2 -22 -4z"/>
<path d="M1095 90 c3 -5 12 -10 20 -10 7 0 15 -7 19 -15 3 -10 19 -15 46 -15
25 0 39 4 35 10 -3 6 -19 10 -36 10 -42 0 -36 18 9 23 22 2 10 4 -31 5 -43 1
-66 -2 -62 -8z"/>
<path d="M4351 96 c2 -2 45 -7 94 -10 63 -5 86 -4 75 3 -13 10 -179 16 -169 7z"/>
<path d="M4610 90 c8 -5 29 -9 45 -9 29 1 29 1 5 9 -14 4 -34 8 -45 9 -16 1
-17 -1 -5 -9z"/>
<path d="M4753 93 c9 -2 23 -2 30 0 6 3 -1 5 -18 5 -16 0 -22 -2 -12 -5z"/>
<path d="M48 83 c6 -2 18 -2 25 0 6 3 1 5 -13 5 -14 0 -19 -2 -12 -5z"/>
<path d="M560 80 c8 -5 26 -9 40 -9 23 0 23 1 5 9 -11 5 -29 9 -40 9 -17 1
-17 -1 -5 -9z"/>
<path d="M3988 83 c12 -2 30 -2 40 0 9 3 -1 5 -23 4 -22 0 -30 -2 -17 -4z"/>
<path d="M4275 80 c76 -13 199 -21 155 -10 -19 5 -73 11 -120 14 -69 4 -76 3
-35 -4z"/>
<path d="M6398 83 c6 -2 18 -2 25 0 6 3 1 5 -13 5 -14 0 -19 -2 -12 -5z"/>
<path d="M4568 73 c6 -2 18 -2 25 0 6 3 1 5 -13 5 -14 0 -19 -2 -12 -5z"/>
<path d="M4850 70 c14 -4 32 -8 40 -9 13 -1 13 0 0 9 -8 5 -26 9 -40 9 l-25
-1 25 -8z"/>
<path d="M5128 73 c7 -3 16 -2 19 1 4 3 -2 6 -13 5 -11 0 -14 -3 -6 -6z"/>
<path d="M4208 63 c12 -2 32 -2 45 0 12 2 2 4 -23 4 -25 0 -35 -2 -22 -4z"/>
<path d="M3898 53 c12 -2 30 -2 40 0 9 3 -1 5 -23 4 -22 0 -30 -2 -17 -4z"/>
<path d="M5018 53 c7 -3 16 -2 19 1 4 3 -2 6 -13 5 -11 0 -14 -3 -6 -6z"/>
<path d="M5183 53 c9 -2 25 -2 35 0 9 3 1 5 -18 5 -19 0 -27 -2 -17 -5z"/>
<path d="M5918 53 c12 -2 30 -2 40 0 9 3 -1 5 -23 4 -22 0 -30 -2 -17 -4z"/>
<path d="M6428 53 c7 -3 16 -2 19 1 4 3 -2 6 -13 5 -11 0 -14 -3 -6 -6z"/>
<path d="M60 31 l-45 -16 34 -3 c24 -3 37 1 44 13 6 12 16 15 39 10 21 -5 28
-4 24 4 -9 15 -41 12 -96 -8z"/>
<path d="M223 43 c9 -2 23 -2 30 0 6 3 -1 5 -18 5 -16 0 -22 -2 -12 -5z"/>
<path d="M1270 40 c0 -5 5 -10 11 -10 5 0 7 5 4 10 -3 6 -8 10 -11 10 -2 0 -4
-4 -4 -10z"/>
<path d="M3759 37 c5 -5 19 -7 32 -5 20 3 19 5 -9 9 -20 3 -29 2 -23 -4z"/>
<path d="M4173 43 c9 -2 23 -2 30 0 6 3 -1 5 -18 5 -16 0 -22 -2 -12 -5z"/>
<path d="M4520 41 c0 -8 -18 -9 -54 -5 -36 4 -56 3 -61 -5 -5 -9 15 -11 77
-10 45 2 93 -1 105 -5 12 -4 24 -2 27 3 4 5 -8 12 -26 16 -18 4 -41 9 -50 11
-10 3 -18 1 -18 -5z"/>
<path d="M4645 35 c61 -18 94 -20 78 -4 -5 5 -37 12 -69 15 l-59 4 50 -15z"/>
<path d="M5788 43 c6 -2 18 -2 25 0 6 3 1 5 -13 5 -14 0 -19 -2 -12 -5z"/>
<path d="M6018 43 c12 -2 30 -2 40 0 9 3 -1 5 -23 4 -22 0 -30 -2 -17 -4z"/>
<path d="M6369 35 c18 -8 47 -15 65 -14 26 0 28 2 11 8 -11 5 -40 11 -65 15
l-45 7 34 -16z"/>
<path d="M6468 43 c7 -3 16 -2 19 1 4 3 -2 6 -13 5 -11 0 -14 -3 -6 -6z"/>
<path d="M483 33 c9 -2 23 -2 30 0 6 3 -1 5 -18 5 -16 0 -22 -2 -12 -5z"/>
<path d="M4838 33 c7 -3 16 -2 19 1 4 3 -2 6 -13 5 -11 0 -14 -3 -6 -6z"/>
<path d="M5093 33 c15 -2 39 -2 55 0 15 2 2 4 -28 4 -30 0 -43 -2 -27 -4z"/>
<path d="M548 23 c7 -3 16 -2 19 1 4 3 -2 6 -13 5 -11 0 -14 -3 -6 -6z"/>
<path d="M1115 20 c-3 -6 1 -7 9 -4 18 7 21 14 7 14 -6 0 -13 -4 -16 -10z"/>
<path d="M1185 20 c-40 -7 -36 -10 22 -15 23 -2 30 1 26 11 -3 8 -6 13 -7 13
0 -1 -19 -5 -41 -9z"/>
<path d="M4140 20 c14 -4 36 -8 50 -8 23 -1 23 0 5 8 -11 5 -33 8 -50 8 -29 0
-29 0 -5 -8z"/>
<path d="M5803 23 c9 -2 25 -2 35 0 9 3 1 5 -18 5 -19 0 -27 -2 -17 -5z"/>
<path d="M6173 23 c20 -2 54 -2 75 0 20 2 3 4 -38 4 -41 0 -58 -2 -37 -4z"/>
<path d="M830 10 c20 -13 33 -13 25 0 -3 5 -14 10 -23 10 -15 0 -15 -2 -2 -10z"/>
<path d="M3848 13 c12 -2 30 -2 40 0 9 3 -1 5 -23 4 -22 0 -30 -2 -17 -4z"/>
<path d="M5273 13 c15 -2 39 -2 55 0 15 2 2 4 -28 4 -30 0 -43 -2 -27 -4z"/>
<path d="M5980 10 c14 -9 169 -15 159 -6 -2 2 -42 6 -89 9 -56 4 -80 3 -70 -3z"/>
<path d="M5813 3 c9 -2 23 -2 30 0 6 3 -1 5 -18 5 -16 0 -22 -2 -12 -5z"/>
<path d="M5893 3 c9 -2 25 -2 35 0 9 3 1 5 -18 5 -19 0 -27 -2 -17 -5z"/>
</g>
</svg>
